<svg id="Layer_1" data-name="Layer 1" xmlns="http://www.w3.org/2000/svg" viewBox="0 0 36.38 23.26"><title>camera</title><rect x="5.5" y="6.48" width="0.79" height="0.78"/><rect x="7.07" y="6.48" width="0.79" height="0.78"/><rect x="3.94" y="6.48" width="0.79" height="0.78"/><path d="M429.94,204.55a7.36,7.36,0,1,0,7.36,7.37A7.37,7.37,0,0,0,429.94,204.55Zm0,14a6.62,6.62,0,1,1,6.62-6.62A6.62,6.62,0,0,1,429.94,218.54Z" transform="translate(-411.75 -199.18)"/><path d="M445.22,201.42v-2.24h-8v2.24H411.75v21h36.38v-21Zm2.13,20.24H412.53V202.2H438V200h6.46v2.23h2.91Z" transform="translate(-411.75 -199.18)"/></svg>