<svg id="Layer_1" data-name="Layer 1" xmlns="http://www.w3.org/2000/svg" viewBox="0 0 36.38 21.63"><title>check-in</title><path d="M483.51,204.9a4.91,4.91,0,1,0-9.82,0c0,2.71,4.91,8.43,4.91,8.43S483.51,207.62,483.51,204.9Zm-4.91-4a4,4,0,0,1,4,4c0,2.23-4,7.32-4,7.32s-4-5.09-4-7.32A4,4,0,0,1,478.6,200.86Z" transform="translate(-460.41 -199.99)"/><rect x="17.8" y="4.59" width="0.78" height="0.79"/><rect x="19.37" y="4.59" width="0.79" height="0.79"/><rect x="16.23" y="4.59" width="0.78" height="0.79"/><polygon points="27.05 11.28 25.58 11.28 25.07 12.06 26.72 12.06 35.16 20.84 1.22 20.84 9.66 12.06 11.4 12.06 10.89 11.28 9.32 11.28 0 20.84 0 21.63 36.38 21.63 36.38 20.84 27.05 11.28"/></svg>