<svg id="Layer_1" data-name="Layer 1" xmlns="http://www.w3.org/2000/svg" viewBox="0 0 36.38 15.12"><title>glasses</title><path d="M545.53,208.89H544a7.36,7.36,0,0,0-14.22-.35,7.14,7.14,0,0,0-2.41-.43,7.23,7.23,0,0,0-2.53.47,7.36,7.36,0,0,0-14.11.71h-1.62v.79h1.47a8,8,0,0,0-.06.92,7.36,7.36,0,0,0,14.73,0,7.26,7.26,0,0,0-.21-1.72,6.61,6.61,0,0,1,2.32-.43,6.5,6.5,0,0,1,2.23.41,7.82,7.82,0,0,0-.13,1.35,7.36,7.36,0,1,0,14.67-.92h1.35Zm-27.6,8.72a6.62,6.62,0,1,1,6.27-8.75,6.64,6.64,0,0,0-.61.32v.88a6.4,6.4,0,0,1,.81-.49,6.76,6.76,0,0,1,.15,1.42A6.62,6.62,0,0,1,517.93,217.62Zm18.95-.39a6.58,6.58,0,0,1-6.53-7.67,6.53,6.53,0,0,1,.66.36v-.85c-.16-.09-.33-.16-.5-.24a6.62,6.62,0,1,1,6.38,8.4Z" transform="translate(-509.15 -203.24)"/></svg>